<svg width="173" height="61" viewBox="0 0 173 61" fill="none" xmlns="http://www.w3.org/2000/svg">
<path d="M66.7391 0.108398H70.2206V3.58983H73.702V7.07127H70.2206V20.997H66.7391V0.108398ZM73.702 0.108398H80.6649V3.58983H73.702V0.108398ZM80.6649 3.58983H84.1463V20.997H80.6649V3.58983Z" fill="#EB5A29"/>
<path d="M48.1346 0.108398H58.5789V3.58983H48.1346V0.108398ZM44.6532 3.58983H48.1346V7.07127H58.5789V3.58983H62.0604V10.5527H48.1346V17.5156H44.6532V3.58983ZM48.1346 17.5156H58.5789V20.997H48.1346V17.5156ZM58.5789 14.0341H62.0604V17.5156H58.5789V14.0341Z" fill="#EB5A29"/>
<path d="M22.5673 0.108398H26.0488V3.58983H29.5302V7.07127H26.0488V14.0341H29.5302V17.5156H26.0488V27.9599H22.5673V0.108398ZM29.5302 0.108398H36.4931V3.58983H29.5302V0.108398ZM36.4931 3.58983H39.9745V17.5156H36.4931V3.58983ZM29.5302 17.5156H36.4931V20.997H29.5302V17.5156Z" fill="#EB5A29"/>
<path d="M3.96288 0.108398H14.4072V3.58983H3.96288V0.108398ZM14.4072 3.58983H17.8886V17.5156H14.4072V3.58983ZM0.481445 3.58983H3.96288V17.5156H0.481445V3.58983ZM3.96288 17.5156H14.4072V20.997H3.96288V17.5156Z" fill="#EB5A29"/>
<path d="M169.008 49.6787V53.1601H158.564V49.6787H169.008ZM158.564 49.6787H155.083V46.1972H158.564V49.6787ZM169.008 32.2715V35.7529H158.564V32.2715H169.008ZM155.083 35.7529H158.564V39.2344H155.083V35.7529ZM158.564 39.2344H169.008V42.7158H158.564V39.2344ZM169.008 42.7158H172.49V49.6787H169.008V42.7158ZM169.008 35.7529H172.49V39.2344H169.008V35.7529Z" fill="#EB5A29"/>
<path d="M136.478 25.3086H139.96V32.2715H150.404V35.7529H139.96V49.6786H136.478V35.7529H132.997V32.2715H136.478V25.3086ZM139.96 49.6786H146.923V53.1601H139.96V49.6786ZM146.923 46.1972H150.404V49.6786H146.923V46.1972Z" fill="#EB5A29"/>
<path d="M114.392 32.2715H124.837V35.7529H114.392V32.2715ZM110.911 35.7529H114.392V39.2344H124.837V35.7529H128.318V42.7158H114.392V49.6787H110.911V35.7529ZM114.392 49.6787H124.837V53.1601H114.392V49.6787ZM124.837 46.1972H128.318V49.6787H124.837V46.1972Z" fill="#EB5A29"/>
<path d="M88.825 32.2715H92.3064V35.7529H95.7879V39.2344H92.3064V46.1972H95.7879V49.6787H92.3064V60.123H88.825V32.2715ZM95.7879 32.2715H102.751V35.7529H95.7879V32.2715ZM102.751 35.7529H106.232V49.6787H102.751V35.7529ZM95.7879 49.6787H102.751V53.1601H95.7879V49.6787Z" fill="#EB5A29"/>
<path d="M66.7391 32.2715H70.2206V35.7529H73.702V39.2344H70.2206V46.1972H73.702V49.6787H70.2206V60.123H66.7391V32.2715ZM73.702 32.2715H80.6649V35.7529H73.702V32.2715ZM80.6649 35.7529H84.1463V49.6787H80.6649V35.7529ZM73.702 49.6787H80.6649V53.1601H73.702V49.6787Z" fill="#EB5A29"/>
<path d="M51.6161 25.3086H55.0975V28.79H51.6161V25.3086ZM51.6161 35.7529H44.6532V32.2715H55.0975V49.6786H62.0604V53.1601H44.6532V49.6786H51.6161V35.7529Z" fill="#EB5A29"/>
<path d="M22.5673 32.2715H26.0488V35.7529H29.5302V39.2344H26.0488V53.1601H22.5673V32.2715ZM29.5302 32.2715H36.4931V35.7529H29.5302V32.2715ZM36.4931 35.7529H39.9745V53.1601H36.4931V35.7529Z" fill="#EB5A29"/>
<path d="M14.4072 49.6787V53.1601H3.96288V49.6787H14.4072ZM3.96288 49.6787H0.481445V46.1972H3.96288V49.6787ZM14.4072 32.2715V35.7529H3.96288V32.2715H14.4072ZM0.481445 35.7529H3.96288V39.2344H0.481445V35.7529ZM3.96288 39.2344H14.4072V42.7158H3.96288V39.2344ZM14.4072 42.7158H17.8886V49.6787H14.4072V42.7158ZM14.4072 35.7529H17.8886V39.2344H14.4072V35.7529Z" fill="#EB5A29"/>
<rect x="94" y="10.0283" width="49.8464" height="25.06" rx="2.2484" transform="rotate(-9.26799 94 10.0283)" fill="white"/>
<path d="M137.957 21.2829C137.486 21.3596 137.089 21.3038 136.764 21.1153C136.437 20.9165 136.212 20.5963 136.087 20.1546L136.011 20.1672C135.953 20.7121 135.73 21.1526 135.344 21.4887C134.968 21.823 134.474 22.0403 133.86 22.1404C133.093 22.2656 132.441 22.162 131.903 21.8296C131.375 21.4854 131.049 20.94 130.928 20.1934C130.792 19.3649 130.994 18.702 131.532 18.2047C132.071 17.7073 132.923 17.3635 134.089 17.1732L135.362 16.9654L135.297 16.5666C135.22 16.0961 135.05 15.7616 134.787 15.5631C134.532 15.3526 134.144 15.29 133.622 15.3751C133.141 15.4536 132.768 15.609 132.501 15.8415C132.235 16.074 132.018 16.3561 131.852 16.6878L130.429 15.7859C130.621 15.2925 130.976 14.8567 131.491 14.4786C132.016 14.0885 132.723 13.8209 133.613 13.6757C134.697 13.4987 135.581 13.6116 136.267 14.0143C136.96 14.4051 137.389 15.1017 137.553 16.104L138.118 19.5712L138.993 19.4285L139.261 21.0701L137.957 21.2829ZM134.476 20.5121C134.875 20.447 135.197 20.2947 135.441 20.0553C135.686 19.8159 135.778 19.5121 135.718 19.144L135.562 18.1928L134.35 18.3905C133.42 18.5424 133.005 18.9303 133.107 19.5542L133.157 19.861C133.202 20.1372 133.344 20.3293 133.582 20.4375C133.82 20.5456 134.118 20.5705 134.476 20.5121Z" fill="#1E1E1E"/>
<path d="M126.502 23.1529C125.684 23.2864 125.041 23.1709 124.572 22.8064C124.103 22.4419 123.814 21.9273 123.705 21.2625L123.075 17.3964L120.927 17.7469L120.639 15.9826L122.035 15.7548C122.372 15.6997 122.602 15.594 122.723 15.4377C122.845 15.2814 122.876 15.0242 122.818 14.6662L122.515 12.8099L124.602 12.4694L125.057 15.2616L128.141 14.7584L128.429 16.5227L125.345 17.0259L126.061 21.4136L129.145 20.9104L129.433 22.6747L126.502 23.1529Z" fill="#1E1E1E"/>
<path d="M116.935 24.9038C115.605 25.1208 114.537 24.917 113.732 24.2924C112.927 23.6679 112.42 22.7214 112.213 21.4532C112.108 20.8089 112.101 20.2168 112.191 19.677C112.29 19.1254 112.474 18.6439 112.743 18.2325C113.021 17.8092 113.38 17.4671 113.82 17.2063C114.269 16.9335 114.79 16.7487 115.383 16.6519C115.976 16.5551 116.524 16.5655 117.026 16.683C117.527 16.7904 117.969 16.9912 118.353 17.2855C118.737 17.5799 119.057 17.9634 119.313 18.4362C119.577 18.8971 119.759 19.4344 119.859 20.048L119.969 20.7231L114.554 21.6068L114.576 21.7449C114.66 22.2563 114.886 22.6446 115.255 22.9099C115.622 23.165 116.112 23.2425 116.726 23.1424C117.196 23.0656 117.586 22.9127 117.895 22.6838C118.203 22.4446 118.455 22.1567 118.652 21.82L120.097 22.9545C119.852 23.383 119.476 23.7804 118.969 24.1466C118.462 24.5129 117.784 24.7653 116.935 24.9038ZM115.664 18.2756C115.173 18.3557 114.804 18.5734 114.558 18.9286C114.32 19.272 114.243 19.6993 114.326 20.2107L114.346 20.3334L117.537 19.8127L117.517 19.69C117.432 19.1684 117.222 18.7826 116.887 18.5328C116.563 18.2812 116.155 18.1955 115.664 18.2756Z" fill="#1E1E1E"/>
<path d="M101.941 15.5059L104.211 15.1353L105.008 20.014L105.115 19.9965C105.233 19.4943 105.45 19.0597 105.769 18.6928C106.087 18.3259 106.563 18.0907 107.197 17.9872C107.637 17.9154 108.049 17.9322 108.434 18.0374C108.828 18.141 109.181 18.3406 109.492 18.6364C109.813 18.9306 110.088 19.3267 110.316 19.825C110.555 20.3216 110.732 20.9278 110.849 21.6438C110.966 22.3597 110.99 22.991 110.922 23.5377C110.864 24.0827 110.729 24.5456 110.519 24.9265C110.318 25.3057 110.047 25.6072 109.705 25.831C109.374 26.053 108.989 26.1999 108.549 26.2717C107.915 26.3752 107.389 26.3087 106.973 26.0721C106.554 25.8254 106.209 25.4775 105.936 25.0285L105.829 25.046L106.064 26.4882L103.794 26.8587L101.941 15.5059ZM107.279 24.6676C107.79 24.5842 108.159 24.3665 108.385 24.0146C108.61 23.6525 108.677 23.1953 108.587 22.643L108.386 21.4156C108.296 20.8634 108.088 20.4563 107.762 20.1945C107.434 19.9225 107.014 19.8283 106.503 19.9117C106.104 19.9768 105.772 20.1307 105.507 20.3735C105.253 20.6145 105.159 20.9447 105.228 21.364L105.608 23.696C105.677 24.1153 105.87 24.3988 106.188 24.5464C106.517 24.6923 106.88 24.7327 107.279 24.6676Z" fill="#1E1E1E"/>
</svg>
