<svg width="89" height="21" viewBox="0 0 89 21" fill="none" xmlns="http://www.w3.org/2000/svg">
<g clip-path="url(#clip0_1647_943)">
<path fill-rule="evenodd" clip-rule="evenodd" d="M25.5958 0.336V0.672H25.2836H24.9715V1.974V3.276H25.2836H25.5958V3.612V3.948H26.5127H27.4296V3.612V3.276H27.7223H28.0149V1.974V0.672H27.7223H27.4296V0.336V0H26.5127H25.5958V0.336ZM71.9492 3.276V5.25H70.7201H69.491V6.237V7.224H70.7201H71.9492V10.836V14.448H72.2418H72.5344V15.099V15.75H72.8466H73.1587V16.086V16.422H75.2852H77.4117V15.435V14.448H76.2021H74.9925V10.836V7.224H76.5143H78.0359V6.237V5.25H76.5143H74.9925V3.276V1.302H73.4708H71.9492V3.276ZM3.0434 4.914V5.25H2.41911H1.79483V5.586V5.922H1.50219H1.20956V6.237V6.552H0.897413H0.58527V8.526V10.5H1.19005H1.79483V10.836V11.172H2.41911H3.0434V11.487V11.802H4.25296H5.46252V12.138V12.474H6.0673H6.67207V13.461V14.448H4.85774H3.0434V13.776V13.104H2.73126H2.41911V12.789V12.474H1.81434H1.20956V12.789V13.104H0.604779H0V13.776V14.448H0.292635H0.58527V14.763V15.078H0.897413H1.20956V15.414V15.75H1.50219H1.79483V16.086V16.422H2.41911H3.0434V16.737V17.052H4.85774H6.67207V16.737V16.422H7.29636H7.92065V16.086V15.75H8.21328H8.50592V15.414V15.078H8.81806H9.13021V14.427V13.776H9.44235H9.75449V13.125V12.474H9.44235H9.13021V11.823V11.172H8.81806H8.50592V10.836V10.5H7.90114H7.29636V10.164V9.828H6.0868H4.87725V9.513V9.198H3.96032H3.0434V8.211V7.224H4.5651H6.0868V7.539V7.854H6.37944H6.67207V8.19V8.526H7.29636H7.92065V8.19V7.854H8.52543H9.13021V7.539V7.224H8.81806H8.50592V6.888V6.552H8.21328H7.92065V6.237V5.922H7.60851H7.29636V5.586V5.25H6.69158H6.0868V4.914V4.578H4.5651H3.0434V4.914ZM35.9746 4.914V5.25H35.3503H34.726V5.586V5.922H34.4334H34.1407V6.237V6.552H33.8286H33.5164V5.901V5.25H32.3069H31.0973V13.125V21H32.3069H33.5164V18.039V15.078H33.8286H34.1407V15.414V15.75H34.4334H34.726V16.086V16.422H35.3503H35.9746V16.737V17.052H37.1841H38.3937V16.737V16.422H39.3106H40.2275V16.086V15.75H40.5397H40.8518V15.414V15.078H41.1445H41.4371V14.427V13.776H41.7492H42.0614V10.815V7.854H41.7492H41.4371V7.539V7.224H41.1445H40.8518V6.573V5.922H40.2275H39.6032V5.586V5.25H38.9985H38.3937V4.914V4.578H37.1841H35.9746V4.914ZM49.982 4.914V5.25H49.3772H48.7725V5.586V5.922H48.4603H48.1482V6.237V6.552H47.836H47.5239V5.901V5.25H46.0022H44.4805V13.125V21H46.0022H47.5239V18.375V15.75H47.836H48.1482V16.086V16.422H48.753H49.3577V16.737V17.052H50.8794H52.4011V16.737V16.422H53.0254H53.6497V16.086V15.75H53.9424H54.235V15.414V15.078H54.5471H54.8593V14.763V14.448H55.1714H55.4836V13.461V12.474H55.7762H56.0688V10.836V9.198H55.7762H55.4836V8.211V7.224H55.1714H54.8593V6.888V6.552H54.5471H54.235V6.237V5.922H53.9424H53.6497V5.586V5.25H53.0254H52.4011V4.914V4.578H51.1916H49.982V4.914ZM62.1947 4.914V5.25H61.2777H60.3608V5.586V5.922H60.0487H59.7365V6.237V6.552H59.4244H59.1122V6.888V7.224H58.8196H58.527V7.875V8.526H58.2148H57.9027V10.815V13.104H58.2148H58.527V13.776V14.448H58.8196H59.1122V14.763V15.078H59.4244H59.7365V15.414V15.75H60.0487H60.3608V16.086V16.422H60.9656H61.5704V16.737V17.052H63.4042H65.2381V16.737V16.422H65.8428H66.4476V16.086V15.75H66.7598H67.0719V15.414V15.078H67.3645H67.6572V14.763V14.448H67.9693H68.2815V14.112V13.776H67.6767H67.0719V13.44V13.104H66.155H65.2381V13.44V13.776H64.9259H64.6138V14.112V14.448H63.4042H62.1947V14.112V13.776H61.8825H61.5704V13.44V13.104H61.2582H60.9461V12.453V11.802H64.6138H68.2815V9.828V7.854H67.9693H67.6572V7.539V7.224H67.3645H67.0719V6.573V5.922H66.4476H65.8233V5.586V5.25H65.2185H64.6138V4.914V4.578H63.4042H62.1947V4.914ZM82.9132 4.914V5.25H82.3084H81.7036V5.586V5.922H81.3915H81.0794V6.237V6.552H80.7672H80.4551V7.203V7.854H80.1624H79.8698V8.526V9.198H80.1624H80.4551V9.849V10.5H80.7672H81.0794V10.836V11.172H81.9963H82.9132V11.487V11.802H84.1228H85.3323V12.138V12.474H85.9566H86.5809V13.461V14.448H84.747H82.9132V14.112V13.776H82.6011H82.2889V13.125V12.474H81.6841H81.0794V12.789V13.104H80.4746H79.8698V13.776V14.448H80.1624H80.4551V15.099V15.75H81.0794H81.7036V16.086V16.422H82.3084H82.9132V16.737V17.052H84.747H86.5809V16.737V16.422H87.1857H87.7904V16.086V15.75H88.0831H88.3757V15.414V15.078H88.6879H89V13.125V11.172H88.6879H88.3757V10.836V10.5H87.7709H87.1662V10.164V9.828H85.9566H84.747V9.513V9.198H83.8301H82.9132V8.211V7.224H84.4349H85.9566V7.875V8.526H86.8735H87.7904V8.19V7.854H88.3952H89V7.539V7.224H88.6879H88.3757V6.888V6.552H88.0831H87.7904V6.237V5.922H87.4783H87.1662V5.586V5.25H86.2492H85.3323V4.914V4.578H84.1228H82.9132V4.914ZM12.1736 10.836V16.422H13.4027H14.6317V12.81V9.198H14.9244H15.217V8.526V7.854H15.8218H16.4266V7.539V7.224H17.3435H18.2604V7.539V7.854H18.5726H18.8847V8.19V8.526H19.1968H19.509V12.474V16.422H20.7185H21.9281V11.823V7.224H21.616H21.3038V6.573V5.922H20.699H20.0943V5.586V5.25H17.9678H15.8413V5.586V5.922H15.5292H15.217V6.237V6.552H14.9244H14.6317V5.901V5.25H13.4027H12.1736V10.836ZM24.9715 10.836V16.422H26.4932H28.0149V10.836V5.25H26.4932H24.9715V10.836ZM37.7694 7.539V7.854H38.0815H38.3937V8.19V8.526H38.7058H39.018V9.177V9.828H39.3106H39.6032V11.151V12.474H39.3106H39.018V12.789V13.104H38.7058H38.3937V13.44V13.776H38.0815H37.7694V14.112V14.448H36.5598H35.3503V14.112V13.776H34.7455H34.1407V13.125V12.474H33.8286H33.5164V10.836V9.198H33.8286H34.1407V8.526V7.854H34.7455H35.3503V7.539V7.224H36.5598H37.7694V7.539ZM51.1916 7.539V7.854H51.7964H52.4011V8.19V8.526H52.7133H53.0254V10.815V13.104H52.7133H52.4011V13.44V13.776H52.1085H51.8159V14.112V14.448H50.2942H48.7725V14.112V13.776H48.4603H48.1482V13.44V13.104H47.836H47.5239V10.815V8.526H47.836H48.1482V8.19V7.854H48.4603H48.7725V7.539V7.224H49.982H51.1916V7.539ZM64.6138 7.539V7.854H64.9259H65.2381V8.19V8.526H65.5307H65.8233V9.177V9.828H63.3847H60.9461V8.841V7.854H61.5704H62.1947V7.539V7.224H63.4042H64.6138V7.539Z" fill="#EB5A29"/>
</g>
<defs>
<clipPath id="clip0_1647_943">
<rect width="89" height="21" fill="white"/>
</clipPath>
</defs>
</svg>
