<svg width="57" height="9" viewBox="0 0 57 9" fill="none" xmlns="http://www.w3.org/2000/svg">
<path d="M56.9796 5.56001C56.9796 5.74401 56.9636 5.90401 56.9316 6.04001H56.4516C56.4836 6.16801 56.4996 6.32801 56.4996 6.52001C56.4996 6.70401 56.4836 6.86401 56.4516 7.00001H53.8116C53.7796 6.86401 53.7636 6.70401 53.7636 6.52001C53.7636 6.32801 53.7796 6.16801 53.8116 6.04001H55.9716C55.9396 5.90401 55.9236 5.74401 55.9236 5.56001C55.9236 5.36801 55.9396 5.20801 55.9716 5.08001H54.0516C54.0196 4.94401 54.0036 4.78401 54.0036 4.60001C54.0036 4.40801 54.0196 4.24801 54.0516 4.12001H53.5716C53.5396 3.98401 53.5236 3.82401 53.5236 3.64001C53.5236 3.44801 53.5396 3.28801 53.5716 3.16001H54.0516C54.0196 3.02401 54.0036 2.86401 54.0036 2.68001C54.0036 2.48801 54.0196 2.32801 54.0516 2.20001H56.6916C56.7236 2.32801 56.7396 2.48801 56.7396 2.68001C56.7396 2.86401 56.7236 3.02401 56.6916 3.16001H54.5316C54.5636 3.28801 54.5796 3.44801 54.5796 3.64001C54.5796 3.82401 54.5636 3.98401 54.5316 4.12001H56.4516C56.4836 4.24801 56.4996 4.40801 56.4996 4.60001C56.4996 4.78401 56.4836 4.94401 56.4516 5.08001H56.9316C56.9636 5.20801 56.9796 5.36801 56.9796 5.56001Z" fill="#EB5A29"/>
<path d="M51.8869 6.04C51.9189 6.168 51.9349 6.328 51.9349 6.52C51.9349 6.704 51.9189 6.864 51.8869 7H49.9669C49.9349 6.864 49.9189 6.704 49.9189 6.52C49.9189 6.328 49.9349 6.168 49.9669 6.04H49.4869C49.4549 5.904 49.4389 5.744 49.4389 5.56C49.4389 5.368 49.4549 5.208 49.4869 5.08C49.4549 4.944 49.4389 4.784 49.4389 4.6C49.4389 4.408 49.4549 4.248 49.4869 4.12C49.4549 3.984 49.4389 3.824 49.4389 3.64C49.4389 3.448 49.4549 3.288 49.4869 3.16H48.5269C48.4949 3.024 48.4789 2.864 48.4789 2.68C48.4789 2.488 48.4949 2.328 48.5269 2.2H49.4869C49.4549 2.064 49.4389 1.904 49.4389 1.72C49.4389 1.528 49.4549 1.368 49.4869 1.24C49.4549 1.104 49.4389 0.943999 49.4389 0.759998C49.4389 0.567998 49.4549 0.407999 49.4869 0.279999H50.4469C50.4789 0.407999 50.4949 0.567998 50.4949 0.759998C50.4949 0.943999 50.4789 1.104 50.4469 1.24C50.4789 1.368 50.4949 1.528 50.4949 1.72C50.4949 1.904 50.4789 2.064 50.4469 2.2H51.8869C51.9189 2.328 51.9349 2.488 51.9349 2.68C51.9349 2.864 51.9189 3.024 51.8869 3.16H50.4469C50.4789 3.288 50.4949 3.448 50.4949 3.64C50.4949 3.824 50.4789 3.984 50.4469 4.12C50.4789 4.248 50.4949 4.408 50.4949 4.6C50.4949 4.784 50.4789 4.944 50.4469 5.08C50.4789 5.208 50.4949 5.368 50.4949 5.56C50.4949 5.744 50.4789 5.904 50.4469 6.04H51.8869Z" fill="#EB5A29"/>
<path d="M47.6102 3.64001C47.6102 3.82401 47.5942 3.98401 47.5622 4.12001C47.5942 4.24801 47.6102 4.40801 47.6102 4.60001C47.6102 4.78401 47.5942 4.94401 47.5622 5.08001H45.0422C45.0742 5.20801 45.0902 5.36801 45.0902 5.56001C45.0902 5.74401 45.0742 5.90401 45.0422 6.04001H47.0822C47.1142 6.16801 47.1302 6.32801 47.1302 6.52001C47.1302 6.70401 47.1142 6.86401 47.0822 7.00001H44.6822C44.6502 6.86401 44.6342 6.70401 44.6342 6.52001C44.6342 6.32801 44.6502 6.16801 44.6822 6.04001H44.0822C44.0502 5.90401 44.0342 5.74401 44.0342 5.56001C44.0342 5.36801 44.0502 5.20801 44.0822 5.08001H43.7222C43.6902 4.94401 43.6742 4.78401 43.6742 4.60001C43.6742 4.40801 43.6902 4.24801 43.7222 4.12001H44.0822C44.0502 3.98401 44.0342 3.82401 44.0342 3.64001C44.0342 3.44801 44.0502 3.28801 44.0822 3.16001H44.6822C44.6502 3.02401 44.6342 2.86401 44.6342 2.68001C44.6342 2.48801 44.6502 2.32801 44.6822 2.20001H47.0822C47.1142 2.32801 47.1302 2.48801 47.1302 2.68001C47.1302 2.86401 47.1142 3.02401 47.0822 3.16001H47.5622C47.5942 3.28801 47.6102 3.44801 47.6102 3.64001ZM46.6022 4.12001C46.5702 3.98401 46.5542 3.82401 46.5542 3.64001C46.5542 3.44801 46.5702 3.28801 46.6022 3.16001H45.0422C45.0742 3.28801 45.0902 3.44801 45.0902 3.64001C45.0902 3.82401 45.0742 3.98401 45.0422 4.12001H46.6022Z" fill="#EB5A29"/>
<path d="M42.8055 4.60001C42.8055 4.78401 42.7895 4.94401 42.7575 5.08001H42.2775C42.3095 5.20801 42.3255 5.36801 42.3255 5.56001C42.3255 5.74401 42.3095 5.90401 42.2775 6.04001H41.7975C41.8295 6.16801 41.8455 6.32801 41.8455 6.52001C41.8455 6.70401 41.8295 6.86401 41.7975 7.00001H39.8775C39.9095 7.12801 39.9255 7.28801 39.9255 7.48001C39.9255 7.66401 39.9095 7.82401 39.8775 7.96001C39.9095 8.08801 39.9255 8.24801 39.9255 8.44001C39.9255 8.62401 39.9095 8.78401 39.8775 8.92001H38.9175C38.8855 8.78401 38.8695 8.62401 38.8695 8.44001C38.8695 8.24801 38.8855 8.08801 38.9175 7.96001C38.8855 7.82401 38.8695 7.66401 38.8695 7.48001C38.8695 7.28801 38.8855 7.12801 38.9175 7.00001C38.8855 6.86401 38.8695 6.70401 38.8695 6.52001C38.8695 6.32801 38.8855 6.16801 38.9175 6.04001C38.8855 5.90401 38.8695 5.74401 38.8695 5.56001C38.8695 5.36801 38.8855 5.20801 38.9175 5.08001C38.8855 4.94401 38.8695 4.78401 38.8695 4.60001C38.8695 4.40801 38.8855 4.24801 38.9175 4.12001C38.8855 3.98401 38.8695 3.82401 38.8695 3.64001C38.8695 3.44801 38.8855 3.28801 38.9175 3.16001C38.8855 3.02401 38.8695 2.86401 38.8695 2.68001C38.8695 2.48801 38.8855 2.32801 38.9175 2.20001H39.8775C39.9095 2.32801 39.9255 2.48801 39.9255 2.68001C39.9255 2.86401 39.9095 3.02401 39.8775 3.16001H40.3575C40.3895 3.28801 40.4055 3.44801 40.4055 3.64001C40.4055 3.82401 40.3895 3.98401 40.3575 4.12001H39.8775C39.9095 4.24801 39.9255 4.40801 39.9255 4.60001C39.9255 4.78401 39.9095 4.94401 39.8775 5.08001C39.9095 5.20801 39.9255 5.36801 39.9255 5.56001C39.9255 5.74401 39.9095 5.90401 39.8775 6.04001H41.3175C41.2855 5.90401 41.2695 5.74401 41.2695 5.56001C41.2695 5.36801 41.2855 5.20801 41.3175 5.08001H41.7975C41.7655 4.94401 41.7495 4.78401 41.7495 4.60001C41.7495 4.40801 41.7655 4.24801 41.7975 4.12001H41.3175C41.2855 3.98401 41.2695 3.82401 41.2695 3.64001C41.2695 3.44801 41.2855 3.28801 41.3175 3.16001H40.3575C40.3255 3.02401 40.3095 2.86401 40.3095 2.68001C40.3095 2.48801 40.3255 2.32801 40.3575 2.20001H41.7975C41.8295 2.32801 41.8455 2.48801 41.8455 2.68001C41.8455 2.86401 41.8295 3.02401 41.7975 3.16001H42.2775C42.3095 3.28801 42.3255 3.44801 42.3255 3.64001C42.3255 3.82401 42.3095 3.98401 42.2775 4.12001H42.7575C42.7895 4.24801 42.8055 4.40801 42.8055 4.60001Z" fill="#EB5A29"/>
<path d="M38.0008 4.60001C38.0008 4.78401 37.9848 4.94401 37.9528 5.08001H37.4728C37.5048 5.20801 37.5208 5.36801 37.5208 5.56001C37.5208 5.74401 37.5048 5.90401 37.4728 6.04001H36.9928C37.0248 6.16801 37.0408 6.32801 37.0408 6.52001C37.0408 6.70401 37.0248 6.86401 36.9928 7.00001H35.0728C35.1048 7.12801 35.1208 7.28801 35.1208 7.48001C35.1208 7.66401 35.1048 7.82401 35.0728 7.96001C35.1048 8.08801 35.1208 8.24801 35.1208 8.44001C35.1208 8.62401 35.1048 8.78401 35.0728 8.92001H34.1128C34.0808 8.78401 34.0648 8.62401 34.0648 8.44001C34.0648 8.24801 34.0808 8.08801 34.1128 7.96001C34.0808 7.82401 34.0648 7.66401 34.0648 7.48001C34.0648 7.28801 34.0808 7.12801 34.1128 7.00001C34.0808 6.86401 34.0648 6.70401 34.0648 6.52001C34.0648 6.32801 34.0808 6.16801 34.1128 6.04001C34.0808 5.90401 34.0648 5.74401 34.0648 5.56001C34.0648 5.36801 34.0808 5.20801 34.1128 5.08001C34.0808 4.94401 34.0648 4.78401 34.0648 4.60001C34.0648 4.40801 34.0808 4.24801 34.1128 4.12001C34.0808 3.98401 34.0648 3.82401 34.0648 3.64001C34.0648 3.44801 34.0808 3.28801 34.1128 3.16001C34.0808 3.02401 34.0648 2.86401 34.0648 2.68001C34.0648 2.48801 34.0808 2.32801 34.1128 2.20001H35.0728C35.1048 2.32801 35.1208 2.48801 35.1208 2.68001C35.1208 2.86401 35.1048 3.02401 35.0728 3.16001H35.5528C35.5848 3.28801 35.6008 3.44801 35.6008 3.64001C35.6008 3.82401 35.5848 3.98401 35.5528 4.12001H35.0728C35.1048 4.24801 35.1208 4.40801 35.1208 4.60001C35.1208 4.78401 35.1048 4.94401 35.0728 5.08001C35.1048 5.20801 35.1208 5.36801 35.1208 5.56001C35.1208 5.74401 35.1048 5.90401 35.0728 6.04001H36.5128C36.4808 5.90401 36.4648 5.74401 36.4648 5.56001C36.4648 5.36801 36.4808 5.20801 36.5128 5.08001H36.9928C36.9608 4.94401 36.9448 4.78401 36.9448 4.60001C36.9448 4.40801 36.9608 4.24801 36.9928 4.12001H36.5128C36.4808 3.98401 36.4648 3.82401 36.4648 3.64001C36.4648 3.44801 36.4808 3.28801 36.5128 3.16001H35.5528C35.5208 3.02401 35.5048 2.86401 35.5048 2.68001C35.5048 2.48801 35.5208 2.32801 35.5528 2.20001H36.9928C37.0248 2.32801 37.0408 2.48801 37.0408 2.68001C37.0408 2.86401 37.0248 3.02401 36.9928 3.16001H37.4728C37.5048 3.28801 37.5208 3.44801 37.5208 3.64001C37.5208 3.82401 37.5048 3.98401 37.4728 4.12001H37.9528C37.9848 4.24801 38.0008 4.40801 38.0008 4.60001Z" fill="#EB5A29"/>
<path d="M30.7481 1.24C30.7161 1.104 30.7001 0.943999 30.7001 0.759998C30.7001 0.567998 30.7161 0.407999 30.7481 0.279999H31.7081C31.7401 0.407999 31.7561 0.567998 31.7561 0.759998C31.7561 0.943999 31.7401 1.104 31.7081 1.24H30.7481ZM32.6681 6.04C32.7001 6.168 32.7161 6.328 32.7161 6.52C32.7161 6.704 32.7001 6.864 32.6681 7H29.7881C29.7561 6.864 29.7401 6.704 29.7401 6.52C29.7401 6.328 29.7561 6.168 29.7881 6.04H30.7481C30.7161 5.904 30.7001 5.744 30.7001 5.56C30.7001 5.368 30.7161 5.208 30.7481 5.08C30.7161 4.944 30.7001 4.784 30.7001 4.6C30.7001 4.408 30.7161 4.248 30.7481 4.12C30.7161 3.984 30.7001 3.824 30.7001 3.64C30.7001 3.448 30.7161 3.288 30.7481 3.16H30.0281C29.9961 3.024 29.9801 2.864 29.9801 2.68C29.9801 2.488 29.9961 2.328 30.0281 2.2H31.7081C31.7401 2.328 31.7561 2.488 31.7561 2.68C31.7561 2.864 31.7401 3.024 31.7081 3.16C31.7401 3.288 31.7561 3.448 31.7561 3.64C31.7561 3.824 31.7401 3.984 31.7081 4.12C31.7401 4.248 31.7561 4.408 31.7561 4.6C31.7561 4.784 31.7401 4.944 31.7081 5.08C31.7401 5.208 31.7561 5.368 31.7561 5.56C31.7561 5.744 31.7401 5.904 31.7081 6.04H32.6681Z" fill="#EB5A29"/>
<path d="M25.3914 2.68001C25.3914 2.86401 25.3754 3.02401 25.3434 3.16001H25.8234C25.8554 3.28801 25.8714 3.44801 25.8714 3.64001C25.8714 3.82401 25.8554 3.98401 25.8234 4.12001H25.4634C25.4954 4.24801 25.5114 4.40801 25.5114 4.60001C25.5114 4.78401 25.4954 4.94401 25.4634 5.08001C25.4954 5.20801 25.5114 5.36801 25.5114 5.56001C25.5114 5.74401 25.4954 5.90401 25.4634 6.04001C25.4954 6.16801 25.5114 6.32801 25.5114 6.52001C25.5114 6.70401 25.4954 6.86401 25.4634 7.00001H24.5034C24.4714 6.86401 24.4554 6.70401 24.4554 6.52001C24.4554 6.32801 24.4714 6.16801 24.5034 6.04001C24.4714 5.90401 24.4554 5.74401 24.4554 5.56001C24.4554 5.36801 24.4714 5.20801 24.5034 5.08001C24.4714 4.94401 24.4554 4.78401 24.4554 4.60001C24.4554 4.40801 24.4714 4.24801 24.5034 4.12001C24.4714 3.98401 24.4554 3.82401 24.4554 3.64001C24.4554 3.44801 24.4714 3.28801 24.5034 3.16001C24.4714 3.02401 24.4554 2.86401 24.4554 2.68001C24.4554 2.48801 24.4714 2.32801 24.5034 2.20001H25.3434C25.3754 2.32801 25.3914 2.48801 25.3914 2.68001ZM28.3434 4.12001C28.3754 4.24801 28.3914 4.40801 28.3914 4.60001C28.3914 4.78401 28.3754 4.94401 28.3434 5.08001C28.3754 5.20801 28.3914 5.36801 28.3914 5.56001C28.3914 5.74401 28.3754 5.90401 28.3434 6.04001C28.3754 6.16801 28.3914 6.32801 28.3914 6.52001C28.3914 6.70401 28.3754 6.86401 28.3434 7.00001H27.3834C27.3514 6.86401 27.3354 6.70401 27.3354 6.52001C27.3354 6.32801 27.3514 6.16801 27.3834 6.04001C27.3514 5.90401 27.3354 5.74401 27.3354 5.56001C27.3354 5.36801 27.3514 5.20801 27.3834 5.08001C27.3514 4.94401 27.3354 4.78401 27.3354 4.60001C27.3354 4.40801 27.3514 4.24801 27.3834 4.12001C27.3514 3.98401 27.3354 3.82401 27.3354 3.64001C27.3354 3.44801 27.3514 3.28801 27.3834 3.16001H25.8234C25.7914 3.02401 25.7754 2.86401 25.7754 2.68001C25.7754 2.48801 25.7914 2.32801 25.8234 2.20001H27.7434C27.7754 2.32801 27.7914 2.48801 27.7914 2.68001C27.7914 2.86401 27.7754 3.02401 27.7434 3.16001H28.3434C28.3754 3.28801 28.3914 3.44801 28.3914 3.64001C28.3914 3.82401 28.3754 3.98401 28.3434 4.12001Z" fill="#EB5A29"/>
<path d="M23.5388 4.12C23.5708 4.248 23.5868 4.408 23.5868 4.6C23.5868 4.784 23.5708 4.944 23.5388 5.08C23.5708 5.208 23.5868 5.368 23.5868 5.56C23.5868 5.744 23.5708 5.904 23.5388 6.04H23.0588C23.0908 6.168 23.1068 6.328 23.1068 6.52C23.1068 6.704 23.0908 6.864 23.0588 7H20.1788C20.1468 6.864 20.1308 6.704 20.1308 6.52C20.1308 6.328 20.1468 6.168 20.1788 6.04H19.6988C19.6668 5.904 19.6508 5.744 19.6508 5.56C19.6508 5.368 19.6668 5.208 19.6988 5.08H20.6588C20.6908 5.208 20.7068 5.368 20.7068 5.56C20.7068 5.744 20.6908 5.904 20.6588 6.04H22.5788C22.5468 5.904 22.5308 5.744 22.5308 5.56C22.5308 5.368 22.5468 5.208 22.5788 5.08C22.5468 4.944 22.5308 4.784 22.5308 4.6C22.5308 4.408 22.5468 4.248 22.5788 4.12H20.1788C20.1468 3.984 20.1308 3.824 20.1308 3.64C20.1308 3.448 20.1468 3.288 20.1788 3.16H19.6988C19.6668 3.024 19.6508 2.864 19.6508 2.68C19.6508 2.488 19.6668 2.328 19.6988 2.2C19.6668 2.064 19.6508 1.904 19.6508 1.72C19.6508 1.528 19.6668 1.368 19.6988 1.24H20.1788C20.1468 1.104 20.1308 0.943999 20.1308 0.759998C20.1308 0.567998 20.1468 0.407999 20.1788 0.279999H23.0588C23.0908 0.407999 23.1068 0.567998 23.1068 0.759998C23.1068 0.943999 23.0908 1.104 23.0588 1.24H23.5388C23.5708 1.368 23.5868 1.528 23.5868 1.72C23.5868 1.904 23.5708 2.064 23.5388 2.2H22.5788C22.5468 2.064 22.5308 1.904 22.5308 1.72C22.5308 1.528 22.5468 1.368 22.5788 1.24H20.6588C20.6908 1.368 20.7068 1.528 20.7068 1.72C20.7068 1.904 20.6908 2.064 20.6588 2.2C20.6908 2.328 20.7068 2.488 20.7068 2.68C20.7068 2.864 20.6908 3.024 20.6588 3.16H23.0588C23.0908 3.288 23.1068 3.448 23.1068 3.64C23.1068 3.824 23.0908 3.984 23.0588 4.12H23.5388Z" fill="#EB5A29"/>
<path d="M15.7821 2.68001C15.7821 2.86401 15.7661 3.02401 15.7341 3.16001H16.2141C16.2461 3.28801 16.2621 3.44801 16.2621 3.64001C16.2621 3.82401 16.2461 3.98401 16.2141 4.12001H15.8541C15.8861 4.24801 15.9021 4.40801 15.9021 4.60001C15.9021 4.78401 15.8861 4.94401 15.8541 5.08001C15.8861 5.20801 15.9021 5.36801 15.9021 5.56001C15.9021 5.74401 15.8861 5.90401 15.8541 6.04001C15.8861 6.16801 15.9021 6.32801 15.9021 6.52001C15.9021 6.70401 15.8861 6.86401 15.8541 7.00001H14.8941C14.8621 6.86401 14.8461 6.70401 14.8461 6.52001C14.8461 6.32801 14.8621 6.16801 14.8941 6.04001C14.8621 5.90401 14.8461 5.74401 14.8461 5.56001C14.8461 5.36801 14.8621 5.20801 14.8941 5.08001C14.8621 4.94401 14.8461 4.78401 14.8461 4.60001C14.8461 4.40801 14.8621 4.24801 14.8941 4.12001C14.8621 3.98401 14.8461 3.82401 14.8461 3.64001C14.8461 3.44801 14.8621 3.28801 14.8941 3.16001C14.8621 3.02401 14.8461 2.86401 14.8461 2.68001C14.8461 2.48801 14.8621 2.32801 14.8941 2.20001H15.7341C15.7661 2.32801 15.7821 2.48801 15.7821 2.68001ZM18.7341 4.12001C18.7661 4.24801 18.7821 4.40801 18.7821 4.60001C18.7821 4.78401 18.7661 4.94401 18.7341 5.08001C18.7661 5.20801 18.7821 5.36801 18.7821 5.56001C18.7821 5.74401 18.7661 5.90401 18.7341 6.04001C18.7661 6.16801 18.7821 6.32801 18.7821 6.52001C18.7821 6.70401 18.7661 6.86401 18.7341 7.00001H17.7741C17.7421 6.86401 17.7261 6.70401 17.7261 6.52001C17.7261 6.32801 17.7421 6.16801 17.7741 6.04001C17.7421 5.90401 17.7261 5.74401 17.7261 5.56001C17.7261 5.36801 17.7421 5.20801 17.7741 5.08001C17.7421 4.94401 17.7261 4.78401 17.7261 4.60001C17.7261 4.40801 17.7421 4.24801 17.7741 4.12001C17.7421 3.98401 17.7261 3.82401 17.7261 3.64001C17.7261 3.44801 17.7421 3.28801 17.7741 3.16001H16.2141C16.1821 3.02401 16.1661 2.86401 16.1661 2.68001C16.1661 2.48801 16.1821 2.32801 16.2141 2.20001H18.1341C18.1661 2.32801 18.1821 2.48801 18.1821 2.68001C18.1821 2.86401 18.1661 3.02401 18.1341 3.16001H18.7341C18.7661 3.28801 18.7821 3.44801 18.7821 3.64001C18.7821 3.82401 18.7661 3.98401 18.7341 4.12001Z" fill="#EB5A29"/>
<path d="M13.9774 3.64001C13.9774 3.82401 13.9614 3.98401 13.9294 4.12001C13.9614 4.24801 13.9774 4.40801 13.9774 4.60001C13.9774 4.78401 13.9614 4.94401 13.9294 5.08001H11.4094C11.4414 5.20801 11.4574 5.36801 11.4574 5.56001C11.4574 5.74401 11.4414 5.90401 11.4094 6.04001H13.4494C13.4814 6.16801 13.4974 6.32801 13.4974 6.52001C13.4974 6.70401 13.4814 6.86401 13.4494 7.00001H11.0494C11.0174 6.86401 11.0014 6.70401 11.0014 6.52001C11.0014 6.32801 11.0174 6.16801 11.0494 6.04001H10.4494C10.4174 5.90401 10.4014 5.74401 10.4014 5.56001C10.4014 5.36801 10.4174 5.20801 10.4494 5.08001H10.0894C10.0574 4.94401 10.0414 4.78401 10.0414 4.60001C10.0414 4.40801 10.0574 4.24801 10.0894 4.12001H10.4494C10.4174 3.98401 10.4014 3.82401 10.4014 3.64001C10.4014 3.44801 10.4174 3.28801 10.4494 3.16001H11.0494C11.0174 3.02401 11.0014 2.86401 11.0014 2.68001C11.0014 2.48801 11.0174 2.32801 11.0494 2.20001H13.4494C13.4814 2.32801 13.4974 2.48801 13.4974 2.68001C13.4974 2.86401 13.4814 3.02401 13.4494 3.16001H13.9294C13.9614 3.28801 13.9774 3.44801 13.9774 3.64001ZM12.9694 4.12001C12.9374 3.98401 12.9214 3.82401 12.9214 3.64001C12.9214 3.44801 12.9374 3.28801 12.9694 3.16001H11.4094C11.4414 3.28801 11.4574 3.44801 11.4574 3.64001C11.4574 3.82401 11.4414 3.98401 11.4094 4.12001H12.9694Z" fill="#EB5A29"/>
<path d="M9.17269 4.60001C9.17269 4.78401 9.15669 4.94401 9.12469 5.08001H8.64469C8.67669 5.20801 8.69269 5.36801 8.69269 5.56001C8.69269 5.74401 8.67669 5.90401 8.64469 6.04001H8.16469C8.19669 6.16801 8.21269 6.32801 8.21269 6.52001C8.21269 6.70401 8.19669 6.86401 8.16469 7.00001H6.24469C6.27669 7.12801 6.29269 7.28801 6.29269 7.48001C6.29269 7.66401 6.27669 7.82401 6.24469 7.96001C6.27669 8.08801 6.29269 8.24801 6.29269 8.44001C6.29269 8.62401 6.27669 8.78401 6.24469 8.92001H5.28469C5.25269 8.78401 5.23669 8.62401 5.23669 8.44001C5.23669 8.24801 5.25269 8.08801 5.28469 7.96001C5.25269 7.82401 5.23669 7.66401 5.23669 7.48001C5.23669 7.28801 5.25269 7.12801 5.28469 7.00001C5.25269 6.86401 5.23669 6.70401 5.23669 6.52001C5.23669 6.32801 5.25269 6.16801 5.28469 6.04001C5.25269 5.90401 5.23669 5.74401 5.23669 5.56001C5.23669 5.36801 5.25269 5.20801 5.28469 5.08001C5.25269 4.94401 5.23669 4.78401 5.23669 4.60001C5.23669 4.40801 5.25269 4.24801 5.28469 4.12001C5.25269 3.98401 5.23669 3.82401 5.23669 3.64001C5.23669 3.44801 5.25269 3.28801 5.28469 3.16001C5.25269 3.02401 5.23669 2.86401 5.23669 2.68001C5.23669 2.48801 5.25269 2.32801 5.28469 2.20001H6.24469C6.27669 2.32801 6.29269 2.48801 6.29269 2.68001C6.29269 2.86401 6.27669 3.02401 6.24469 3.16001H6.72469C6.75669 3.28801 6.77269 3.44801 6.77269 3.64001C6.77269 3.82401 6.75669 3.98401 6.72469 4.12001H6.24469C6.27669 4.24801 6.29269 4.40801 6.29269 4.60001C6.29269 4.78401 6.27669 4.94401 6.24469 5.08001C6.27669 5.20801 6.29269 5.36801 6.29269 5.56001C6.29269 5.74401 6.27669 5.90401 6.24469 6.04001H7.68469C7.65269 5.90401 7.63669 5.74401 7.63669 5.56001C7.63669 5.36801 7.65269 5.20801 7.68469 5.08001H8.16469C8.13269 4.94401 8.11669 4.78401 8.11669 4.60001C8.11669 4.40801 8.13269 4.24801 8.16469 4.12001H7.68469C7.65269 3.98401 7.63669 3.82401 7.63669 3.64001C7.63669 3.44801 7.65269 3.28801 7.68469 3.16001H6.72469C6.69269 3.02401 6.67669 2.86401 6.67669 2.68001C6.67669 2.48801 6.69269 2.32801 6.72469 2.20001H8.16469C8.19669 2.32801 8.21269 2.48801 8.21269 2.68001C8.21269 2.86401 8.19669 3.02401 8.16469 3.16001H8.64469C8.67669 3.28801 8.69269 3.44801 8.69269 3.64001C8.69269 3.82401 8.67669 3.98401 8.64469 4.12001H9.12469C9.15669 4.24801 9.17269 4.40801 9.17269 4.60001Z" fill="#EB5A29"/>
<path d="M4.36801 4.60001C4.36801 4.78401 4.35201 4.94401 4.32001 5.08001H3.96001C3.99201 5.20801 4.00801 5.36801 4.00801 5.56001C4.00801 5.74401 3.99201 5.90401 3.96001 6.04001H3.36001C3.39201 6.16801 3.40801 6.32801 3.40801 6.52001C3.40801 6.70401 3.39201 6.86401 3.36001 7.00001H1.44001C1.40801 6.86401 1.39201 6.70401 1.39201 6.52001C1.39201 6.32801 1.40801 6.16801 1.44001 6.04001H0.840007C0.808007 5.90401 0.792007 5.74401 0.792007 5.56001C0.792007 5.36801 0.808007 5.20801 0.840007 5.08001H0.480007C0.448007 4.94401 0.432007 4.78401 0.432007 4.60001C0.432007 4.40801 0.448007 4.24801 0.480007 4.12001H0.840007C0.808007 3.98401 0.792007 3.82401 0.792007 3.64001C0.792007 3.44801 0.808007 3.28801 0.840007 3.16001H1.44001C1.40801 3.02401 1.39201 2.86401 1.39201 2.68001C1.39201 2.48801 1.40801 2.32801 1.44001 2.20001H3.36001C3.39201 2.32801 3.40801 2.48801 3.40801 2.68001C3.40801 2.86401 3.39201 3.02401 3.36001 3.16001H3.96001C3.99201 3.28801 4.00801 3.44801 4.00801 3.64001C4.00801 3.82401 3.99201 3.98401 3.96001 4.12001H4.32001C4.35201 4.24801 4.36801 4.40801 4.36801 4.60001ZM3.36001 5.08001C3.32801 4.94401 3.31201 4.78401 3.31201 4.60001C3.31201 4.40801 3.32801 4.24801 3.36001 4.12001H3.00001C2.96801 3.98401 2.95201 3.82401 2.95201 3.64001C2.95201 3.44801 2.96801 3.28801 3.00001 3.16001H1.80001C1.83201 3.28801 1.84801 3.44801 1.84801 3.64001C1.84801 3.82401 1.83201 3.98401 1.80001 4.12001H1.44001C1.47201 4.24801 1.48801 4.40801 1.48801 4.60001C1.48801 4.78401 1.47201 4.94401 1.44001 5.08001H1.80001C1.83201 5.20801 1.84801 5.36801 1.84801 5.56001C1.84801 5.74401 1.83201 5.90401 1.80001 6.04001H3.00001C2.96801 5.90401 2.95201 5.74401 2.95201 5.56001C2.95201 5.36801 2.96801 5.20801 3.00001 5.08001H3.36001Z" fill="#EB5A29"/>
</svg>
