<svg width="236" height="61" viewBox="0 0 236 61" fill="none" xmlns="http://www.w3.org/2000/svg">
<path d="M130.258 0H133.739V3.48143H137.221V6.96287H133.739V20.8886H130.258V0ZM137.221 0H144.183V3.48143H137.221V0ZM144.183 3.48143H147.665V20.8886H144.183V3.48143Z" fill="#EB5A29"/>
<path d="M111.653 0H122.097V3.48143H111.653V0ZM108.172 3.48143H111.653V6.96287H122.097V3.48143H125.579V10.4443H111.653V17.4072H108.172V3.48143ZM111.653 17.4072H122.097V20.8886H111.653V17.4072ZM122.097 13.9257H125.579V17.4072H122.097V13.9257Z" fill="#EB5A29"/>
<path d="M86.0859 0H89.5674V3.48143H93.0488V6.96287H89.5674V13.9257H93.0488V17.4072H89.5674V27.8515H86.0859V0ZM93.0488 0H100.012V3.48143H93.0488V0ZM100.012 3.48143H103.493V17.4072H100.012V3.48143ZM93.0488 17.4072H100.012V20.8886H93.0488V17.4072Z" fill="#EB5A29"/>
<path d="M67.4814 0H77.9257V3.48143H67.4814V0ZM77.9257 3.48143H81.4072V17.4072H77.9257V3.48143ZM64 3.48143H67.4814V17.4072H64V3.48143ZM67.4814 17.4072H77.9257V20.8886H67.4814V17.4072Z" fill="#EB5A29"/>
<path d="M232.527 49.5703V53.0517H222.083V49.5703H232.527ZM222.083 49.5703H218.601V46.0888H222.083V49.5703ZM232.527 32.1631V35.6445H222.083V32.1631H232.527ZM218.601 35.6445H222.083V39.126H218.601V35.6445ZM222.083 39.126H232.527V42.6074H222.083V39.126ZM232.527 42.6074H236.008V49.5703H232.527V42.6074ZM232.527 35.6445H236.008V39.126H232.527V35.6445Z" fill="#EB5A29"/>
<path d="M199.997 25.2002H203.478V32.1631H213.923V35.6445H203.478V49.5702H199.997V35.6445H196.515V32.1631H199.997V25.2002ZM203.478 49.5702H210.441V53.0517H203.478V49.5702ZM210.441 46.0888H213.923V49.5702H210.441V46.0888Z" fill="#EB5A29"/>
<path d="M177.911 32.1631H188.355V35.6445H177.911V32.1631ZM174.429 35.6445H177.911V39.126H188.355V35.6445H191.837V42.6074H177.911V49.5703H174.429V35.6445ZM177.911 49.5703H188.355V53.0517H177.911V49.5703ZM188.355 46.0888H191.837V49.5703H188.355V46.0888Z" fill="#EB5A29"/>
<path d="M152.344 32.1631H155.825V35.6445H159.306V39.126H155.825V46.0888H159.306V49.5703H155.825V60.0146H152.344V32.1631ZM159.306 32.1631H166.269V35.6445H159.306V32.1631ZM166.269 35.6445H169.751V49.5703H166.269V35.6445ZM159.306 49.5703H166.269V53.0517H159.306V49.5703Z" fill="#EB5A29"/>
<path d="M130.258 32.1631H133.739V35.6445H137.221V39.126H133.739V46.0888H137.221V49.5703H133.739V60.0146H130.258V32.1631ZM137.221 32.1631H144.183V35.6445H137.221V32.1631ZM144.183 35.6445H147.665V49.5703H144.183V35.6445ZM137.221 49.5703H144.183V53.0517H137.221V49.5703Z" fill="#EB5A29"/>
<path d="M115.135 25.2002H118.616V28.6816H115.135V25.2002ZM115.135 35.6445H108.172V32.1631H118.616V49.5702H125.579V53.0517H108.172V49.5702H115.135V35.6445Z" fill="#EB5A29"/>
<path d="M86.0859 32.1631H89.5674V35.6445H93.0488V39.126H89.5674V53.0517H86.0859V32.1631ZM93.0488 32.1631H100.012V35.6445H93.0488V32.1631ZM100.012 35.6445H103.493V53.0517H100.012V35.6445Z" fill="#EB5A29"/>
<path d="M77.9257 49.5703V53.0517H67.4814V49.5703H77.9257ZM67.4814 49.5703H64V46.0888H67.4814V49.5703ZM77.9257 32.1631V35.6445H67.4814V32.1631H77.9257ZM64 35.6445H67.4814V39.126H64V35.6445ZM67.4814 39.126H77.9257V42.6074H67.4814V39.126ZM77.9257 42.6074H81.4072V49.5703H77.9257V42.6074ZM77.9257 35.6445H81.4072V39.126H77.9257V35.6445Z" fill="#EB5A29"/>
<rect x="157.519" y="9.91992" width="49.8464" height="25.06" rx="2.2484" transform="rotate(-9.26799 157.519 9.91992)" fill="white"/>
<path d="M201.475 21.1745C201.005 21.2512 200.607 21.1954 200.282 21.0069C199.956 20.8081 199.73 20.4879 199.606 20.0462L199.529 20.0588C199.471 20.6037 199.249 21.0442 198.863 21.3803C198.487 21.7146 197.992 21.9319 197.378 22.032C196.611 22.1572 195.959 22.0536 195.422 21.7213C194.893 21.377 194.568 20.8316 194.446 20.085C194.311 19.2565 194.512 18.5936 195.051 18.0963C195.589 17.5989 196.441 17.2551 197.607 17.0648L198.881 16.857L198.816 16.4582C198.739 15.9877 198.569 15.6532 198.305 15.4547C198.05 15.2442 197.662 15.1816 197.141 15.2667C196.66 15.3452 196.286 15.5006 196.02 15.7331C195.753 15.9656 195.537 16.2477 195.37 16.5794L193.947 15.6775C194.14 15.1841 194.494 14.7483 195.01 14.3702C195.534 13.9801 196.241 13.7125 197.131 13.5673C198.215 13.3903 199.1 13.5032 199.785 13.9059C200.479 14.2967 200.908 14.9933 201.071 15.9956L201.637 19.4628L202.511 19.3201L202.779 20.9617L201.475 21.1745ZM197.995 20.4037C198.394 20.3386 198.715 20.1863 198.96 19.9469C199.204 19.7075 199.296 19.4038 199.236 19.0356L199.081 18.0844L197.869 18.2821C196.938 18.434 196.524 18.8219 196.626 19.4458L196.676 19.7526C196.721 20.0288 196.862 20.2209 197.1 20.3291C197.339 20.4372 197.637 20.4621 197.995 20.4037Z" fill="#1E1E1E"/>
<path d="M190.021 23.0445C189.203 23.178 188.559 23.0625 188.09 22.698C187.621 22.3335 187.333 21.8189 187.224 21.1541L186.593 17.288L184.445 17.6385L184.157 15.8742L185.554 15.6464C185.891 15.5913 186.121 15.4856 186.242 15.3293C186.364 15.173 186.395 14.9158 186.337 14.5578L186.034 12.7015L188.12 12.361L188.576 15.1532L191.659 14.65L191.947 16.4143L188.864 16.9175L189.58 21.3052L192.663 20.802L192.951 22.5663L190.021 23.0445Z" fill="#1E1E1E"/>
<path d="M180.453 24.7954C179.124 25.0124 178.056 24.8086 177.251 24.184C176.445 23.5595 175.939 22.613 175.732 21.3448C175.627 20.7005 175.62 20.1084 175.71 19.5686C175.809 19.017 175.993 18.5355 176.262 18.1241C176.539 17.7008 176.898 17.3587 177.339 17.0979C177.788 16.8251 178.309 16.6403 178.902 16.5435C179.495 16.4467 180.043 16.4571 180.545 16.5746C181.046 16.682 181.488 16.8828 181.872 17.1771C182.256 17.4715 182.576 17.855 182.831 18.3278C183.096 18.7887 183.278 19.326 183.378 19.9396L183.488 20.6147L178.072 21.4984L178.095 21.6365C178.178 22.1479 178.405 22.5362 178.773 22.8015C179.14 23.0566 179.631 23.1341 180.245 23.034C180.715 22.9572 181.105 22.8043 181.414 22.5754C181.721 22.3362 181.974 22.0483 182.171 21.7116L183.616 22.8461C183.371 23.2746 182.995 23.672 182.487 24.0382C181.98 24.4045 181.302 24.6569 180.453 24.7954ZM179.183 18.1672C178.692 18.2473 178.323 18.465 178.076 18.8202C177.838 19.1636 177.761 19.5909 177.845 20.1023L177.865 20.225L181.056 19.7043L181.036 19.5816C180.951 19.06 180.741 18.6742 180.406 18.4244C180.081 18.1728 179.674 18.0871 179.183 18.1672Z" fill="#1E1E1E"/>
<path d="M165.459 15.3975L167.73 15.0269L168.526 19.9056L168.634 19.8881C168.751 19.3859 168.969 18.9513 169.287 18.5844C169.605 18.2175 170.081 17.9823 170.715 17.8788C171.155 17.807 171.567 17.8238 171.952 17.929C172.347 18.0326 172.7 18.2322 173.011 18.528C173.332 18.8222 173.606 19.2183 173.835 19.7166C174.073 20.2132 174.251 20.8194 174.368 21.5354C174.484 22.2513 174.509 22.8826 174.44 23.4293C174.382 23.9743 174.248 24.4372 174.037 24.8181C173.836 25.1973 173.565 25.4988 173.224 25.7226C172.893 25.9446 172.507 26.0915 172.067 26.1633C171.433 26.2668 170.908 26.2003 170.491 25.9637C170.073 25.717 169.727 25.3691 169.455 24.9201L169.347 24.9376L169.583 26.3798L167.312 26.7503L165.459 15.3975ZM170.798 24.5592C171.309 24.4758 171.678 24.2581 171.904 23.9062C172.128 23.5441 172.195 23.0869 172.105 22.5346L171.905 21.3073C171.815 20.755 171.607 20.3479 171.28 20.0861C170.953 19.8141 170.533 19.7199 170.021 19.8033C169.623 19.8684 169.291 20.0223 169.026 20.2651C168.771 20.5061 168.678 20.8363 168.746 21.2557L169.127 23.5876C169.195 24.0069 169.389 24.2904 169.707 24.438C170.035 24.5839 170.399 24.6243 170.798 24.5592Z" fill="#1E1E1E"/>
<rect x="0.997131" y="1" width="15.5571" height="15.5571" fill="#EB5A29"/>
<rect x="0.610962" y="19.3086" width="15.5571" height="15.5571" transform="rotate(-2.92039 0.610962 19.3086)" fill="#EB5A29"/>
<rect x="2.01025" y="35.9092" width="15.5571" height="15.5571" transform="rotate(7.04704 2.01025 35.9092)" fill="#EB5A29"/>
<rect x="18.8995" y="1" width="15.5571" height="15.5571" fill="#EB5A29"/>
<rect x="19.5513" y="18.3008" width="15.5571" height="15.5571" transform="rotate(4.62019 19.5513 18.3008)" fill="#EB5A29"/>
<rect x="17.9484" y="37.8896" width="15.5571" height="15.5571" transform="rotate(-7.52061 17.9484 37.8896)" fill="#EB5A29"/>
<rect x="36.8019" y="1" width="15.5571" height="15.5571" fill="#EB5A29"/>
<rect x="36.3712" y="19.3584" width="15.5571" height="15.5571" transform="rotate(-3.26798 36.3712 19.3584)" fill="#EB5A29"/>
<rect x="38.7137" y="35.2773" width="15.5571" height="15.5571" transform="rotate(12.7702 38.7137 35.2773)" fill="#EB5A29"/>
</svg>
