<svg width="184" height="49" viewBox="0 0 184 49" fill="none" xmlns="http://www.w3.org/2000/svg">
<path d="M173.713 38.9481C170.514 38.9481 167.893 38.2557 165.849 36.8708C163.804 35.4859 162.568 33.5076 162.139 30.9357L167.876 29.4519C168.107 30.606 168.486 31.5127 169.014 32.1722C169.575 32.8316 170.25 33.3097 171.042 33.6065C171.866 33.8703 172.756 34.0022 173.713 34.0022C175.163 34.0022 176.235 33.7549 176.927 33.2603C177.62 32.7327 177.966 32.0898 177.966 31.3314C177.966 30.573 177.636 29.996 176.977 29.6003C176.317 29.1717 175.262 28.8254 173.812 28.5617L172.427 28.3144C170.712 27.9846 169.146 27.5395 167.728 26.979C166.31 26.3855 165.173 25.5776 164.315 24.5555C163.458 23.5333 163.029 22.2144 163.029 20.5987C163.029 18.1588 163.92 16.2958 165.7 15.0099C167.481 13.6909 169.822 13.0315 172.723 13.0315C175.46 13.0315 177.735 13.6415 179.549 14.8615C181.362 16.0815 182.549 17.6807 183.11 19.659L177.323 21.4395C177.059 20.1866 176.515 19.2963 175.691 18.7688C174.9 18.2412 173.91 17.9774 172.723 17.9774C171.536 17.9774 170.63 18.1917 170.003 18.6204C169.377 19.0161 169.063 19.5766 169.063 20.302C169.063 21.0933 169.393 21.6868 170.053 22.0825C170.712 22.4452 171.602 22.7255 172.723 22.9233L174.108 23.1706C175.955 23.5003 177.62 23.9455 179.104 24.506C180.62 25.0336 181.807 25.8084 182.665 26.8306C183.555 27.8198 184 29.1717 184 30.8862C184 33.4581 183.06 35.453 181.181 36.8708C179.334 38.2557 176.845 38.9481 173.713 38.9481Z" fill="#EB5A29"/>
<path d="M153.333 38.2556C151.717 38.2556 150.398 37.761 149.376 36.7719C148.387 35.7497 147.892 34.3978 147.892 32.7162V18.8676H141.759V13.7239H147.892V6.10718H154.124V13.7239H160.851V18.8676H154.124V31.6281C154.124 32.6173 154.586 33.1119 155.509 33.1119H160.257V38.2556H153.333Z" fill="#EB5A29"/>
<path d="M130.356 38.9481C127.916 38.9481 125.757 38.437 123.877 37.4149C122.031 36.3597 120.58 34.8924 119.525 33.013C118.503 31.1006 117.992 28.8584 117.992 26.2865V25.693C117.992 23.1212 118.503 20.8955 119.525 19.016C120.547 17.1036 121.981 15.6363 123.828 14.6142C125.674 13.5591 127.818 13.0315 130.258 13.0315C132.665 13.0315 134.758 13.5755 136.539 14.6636C138.319 15.7188 139.704 17.2025 140.693 19.115C141.683 20.9944 142.177 23.1871 142.177 25.693V27.8198H124.322C124.388 29.5014 125.015 30.8698 126.202 31.9249C127.389 32.98 128.84 33.5076 130.554 33.5076C132.302 33.5076 133.588 33.1284 134.412 32.37C135.236 31.6116 135.863 30.7708 136.292 29.8476L141.386 32.5184C140.924 33.3757 140.248 34.3154 139.358 35.3376C138.501 36.3267 137.347 37.184 135.896 37.9094C134.445 38.6019 132.599 38.9481 130.356 38.9481ZM124.372 23.1706H135.846C135.715 21.7528 135.138 20.6152 134.115 19.7579C133.126 18.9006 131.824 18.472 130.208 18.472C128.526 18.472 127.191 18.9006 126.202 19.7579C125.213 20.6152 124.603 21.7528 124.372 23.1706Z" fill="#EB5A29"/>
<path d="M90.6064 48.1475V13.7239H96.7394V16.6915H97.6296C98.1902 15.7353 99.064 14.8945 100.251 14.1691C101.438 13.4107 103.136 13.0315 105.345 13.0315C107.324 13.0315 109.154 13.5261 110.835 14.5153C112.517 15.4715 113.869 16.8893 114.891 18.7688C115.913 20.6482 116.424 22.9233 116.424 25.5941V26.3855C116.424 29.0563 115.913 31.3314 114.891 33.2108C113.869 35.0903 112.517 36.5246 110.835 37.5138C109.154 38.47 107.324 38.9481 105.345 38.9481C103.861 38.9481 102.609 38.7667 101.586 38.404C100.597 38.0743 99.7894 37.6457 99.1629 37.1181C98.5694 36.5576 98.0913 35.997 97.7286 35.4365H96.8383V48.1475H90.6064ZM103.466 33.5076C105.411 33.5076 107.01 32.8976 108.263 31.6776C109.549 30.4246 110.192 28.6111 110.192 26.2371V25.7425C110.192 23.3685 109.549 21.5714 108.263 20.3514C106.977 19.0985 105.378 18.472 103.466 18.472C101.553 18.472 99.9542 19.0985 98.6683 20.3514C97.3823 21.5714 96.7394 23.3685 96.7394 25.7425V26.2371C96.7394 28.6111 97.3823 30.4246 98.6683 31.6776C99.9542 32.8976 101.553 33.5076 103.466 33.5076Z" fill="#EB5A29"/>
<path d="M62.0342 48.1475V13.7239H68.1671V16.6915H69.0574C69.6179 15.7353 70.4917 14.8945 71.6787 14.1691C72.8657 13.4107 74.5638 13.0315 76.773 13.0315C78.7514 13.0315 80.5814 13.5261 82.263 14.5153C83.9446 15.4715 85.2965 16.8893 86.3186 18.7688C87.3408 20.6482 87.8519 22.9233 87.8519 25.5941V26.3855C87.8519 29.0563 87.3408 31.3314 86.3186 33.2108C85.2965 35.0903 83.9446 36.5246 82.263 37.5138C80.5814 38.47 78.7514 38.9481 76.773 38.9481C75.2892 38.9481 74.0363 38.7667 73.0141 38.404C72.0249 38.0743 71.2171 37.6457 70.5906 37.1181C69.9971 36.5576 69.519 35.997 69.1563 35.4365H68.266V48.1475H62.0342ZM74.8936 33.5076C76.839 33.5076 78.4381 32.8976 79.6911 31.6776C80.977 30.4246 81.62 28.6111 81.62 26.2371V25.7425C81.62 23.3685 80.977 21.5714 79.6911 20.3514C78.4052 19.0985 76.806 18.472 74.8936 18.472C72.9811 18.472 71.382 19.0985 70.096 20.3514C68.8101 21.5714 68.1671 23.3685 68.1671 25.7425V26.2371C68.1671 28.6111 68.8101 30.4246 70.096 31.6776C71.382 32.8976 72.9811 33.5076 74.8936 33.5076Z" fill="#EB5A29"/>
<path d="M51.8641 38.2557V13.724H58.096V38.2557H51.8641ZM54.9801 10.8554C53.859 10.8554 52.9028 10.4927 52.1114 9.76726C51.3531 9.04186 50.9739 8.08565 50.9739 6.89863C50.9739 5.71161 51.3531 4.7554 52.1114 4.03C52.9028 3.3046 53.859 2.94189 54.9801 2.94189C56.1341 2.94189 57.0903 3.3046 57.8487 4.03C58.6071 4.7554 58.9863 5.71161 58.9863 6.89863C58.9863 8.08565 58.6071 9.04186 57.8487 9.76726C57.0903 10.4927 56.1341 10.8554 54.9801 10.8554Z" fill="#EB5A29"/>
<path d="M24.3542 38.2555V13.7238H30.4872V16.9386H31.3774C31.7731 16.0814 32.515 15.2735 33.6031 14.5151C34.6912 13.7238 36.3398 13.3281 38.549 13.3281C40.4614 13.3281 42.1266 13.7733 43.5444 14.6635C44.9952 15.5208 46.1163 16.7243 46.9076 18.274C47.699 19.7908 48.0946 21.5713 48.0946 23.6156V38.2555H41.8628V24.1102C41.8628 22.2637 41.4012 20.8789 40.4779 19.9557C39.5877 19.0324 38.3017 18.5708 36.6201 18.5708C34.7077 18.5708 33.2239 19.2138 32.1688 20.4997C31.1137 21.7527 30.5861 23.5167 30.5861 25.7918V38.2555H24.3542Z" fill="#EB5A29"/>
<path d="M11.5734 38.9481C8.37508 38.9481 5.75375 38.2557 3.70944 36.8708C1.66512 35.4859 0.428646 33.5076 0 30.9357L5.73726 29.4519C5.96807 30.606 6.34726 31.5127 6.87482 32.1722C7.43536 32.8316 8.1113 33.3097 8.90265 33.6065C9.72697 33.8703 10.6172 34.0022 11.5734 34.0022C13.0242 34.0022 14.0959 33.7549 14.7883 33.2603C15.4807 32.7327 15.8269 32.0898 15.8269 31.3314C15.8269 30.573 15.4972 29.996 14.8377 29.6003C14.1783 29.1717 13.1232 28.8254 11.6724 28.5617L10.2875 28.3144C8.57292 27.9846 7.00671 27.5395 5.58888 26.979C4.17105 26.3855 3.03349 25.5776 2.1762 24.5555C1.31891 23.5333 0.890265 22.2144 0.890265 20.5987C0.890265 18.1588 1.78053 16.2958 3.56106 15.0099C5.34159 13.6909 7.68265 13.0315 10.5843 13.0315C13.321 13.0315 15.5961 13.6415 17.4096 14.8615C19.2231 16.0815 20.4101 17.6807 20.9707 19.659L15.184 21.4395C14.9202 20.1866 14.3761 19.2963 13.5518 18.7688C12.7605 18.2412 11.7713 17.9774 10.5843 17.9774C9.39724 17.9774 8.49049 18.1917 7.864 18.6204C7.23752 19.0161 6.92428 19.5766 6.92428 20.302C6.92428 21.0933 7.25401 21.6868 7.91346 22.0825C8.57292 22.4452 9.46318 22.7255 10.5843 22.9233L11.9691 23.1706C13.8156 23.5003 15.4807 23.9455 16.9645 24.506C18.4812 25.0336 19.6683 25.8084 20.5255 26.8306C21.4158 27.8198 21.8609 29.1717 21.8609 30.8862C21.8609 33.4581 20.9212 35.453 19.0418 36.8708C17.1953 38.2557 14.7059 38.9481 11.5734 38.9481Z" fill="#EB5A29"/>
<path d="M37.7822 11.0277V0.30462H39.979V1.91417H40.3271C40.5301 1.47916 40.8926 1.07314 41.4146 0.696133C41.9366 0.319121 42.7124 0.130615 43.7419 0.130615C44.5539 0.130615 45.2717 0.31187 45.8952 0.674382C46.5332 1.03689 47.0335 1.55166 47.396 2.21868C47.7585 2.8712 47.9398 3.66147 47.9398 4.5895V11.0277H45.6995V4.76351C45.6995 3.83548 45.4675 3.15396 45.0034 2.71894C44.5394 2.26943 43.9014 2.04467 43.0894 2.04467C42.1614 2.04467 41.4146 2.34918 40.8491 2.9582C40.298 3.56722 40.0225 4.45175 40.0225 5.61178V11.0277H37.7822Z" fill="#EB5A29"/>
<path d="M31.3009 11.3321C30.2134 11.3321 29.2636 11.1073 28.4516 10.6578C27.6396 10.1938 27.0016 9.54854 26.5376 8.72201C26.088 7.88099 25.8633 6.90946 25.8633 5.80742V5.54642C25.8633 4.42988 26.088 3.45835 26.5376 2.63183C26.9871 1.7908 27.6106 1.14553 28.4081 0.696021C29.2201 0.232007 30.1554 0 31.2139 0C32.2435 0 33.1425 0.232007 33.911 0.696021C34.694 1.14553 35.3031 1.7763 35.7381 2.58833C36.1731 3.40035 36.3906 4.35013 36.3906 5.43766V6.28594H28.1471C28.1761 7.22847 28.4879 7.98249 29.0824 8.54801C29.6914 9.09902 30.4454 9.37453 31.3444 9.37453C32.1855 9.37453 32.8162 9.18603 33.2368 8.80901C33.6718 8.432 34.0053 7.99699 34.2373 7.50398L36.0861 8.461C35.8831 8.86702 35.5858 9.29478 35.1943 9.74429C34.8173 10.1938 34.317 10.5708 33.6935 10.8753C33.07 11.1798 32.2725 11.3321 31.3009 11.3321ZM28.1688 4.56764H34.1068C34.0488 3.75561 33.7588 3.12484 33.2368 2.67533C32.7147 2.21132 32.0332 1.97931 31.1922 1.97931C30.3512 1.97931 29.6624 2.21132 29.1259 2.67533C28.6039 3.12484 28.2849 3.75561 28.1688 4.56764Z" fill="#EB5A29"/>
<path d="M13.7563 15.3777V0.304509H15.9532V1.84881H16.3012C16.5767 1.37029 16.9899 0.942528 17.541 0.565517C18.1065 0.188505 18.9113 0 19.9553 0C20.8543 0 21.6736 0.217507 22.4131 0.65252C23.1671 1.08753 23.7689 1.7183 24.2184 2.54483C24.6824 3.35685 24.9144 4.34288 24.9144 5.50292V5.82918C24.9144 6.98921 24.6897 7.98249 24.2402 8.80901C23.7906 9.62104 23.1889 10.2446 22.4349 10.6796C21.6808 11.1146 20.8543 11.3321 19.9553 11.3321C19.2593 11.3321 18.672 11.2451 18.1935 11.0711C17.715 10.8971 17.3307 10.6796 17.0407 10.4186C16.7507 10.1431 16.5187 9.8603 16.3447 9.57029H15.9967V15.3777H13.7563ZM19.3028 9.37453C20.2888 9.37453 21.0936 9.06277 21.7171 8.43925C22.3406 7.81573 22.6524 6.92396 22.6524 5.76392V5.56817C22.6524 4.42263 22.3334 3.53811 21.6953 2.91459C21.0718 2.29107 20.2743 1.97931 19.3028 1.97931C18.3457 1.97931 17.5482 2.29107 16.9102 2.91459C16.2867 3.53811 15.9749 4.42263 15.9749 5.56817V5.76392C15.9749 6.92396 16.2867 7.81573 16.9102 8.43925C17.5482 9.06277 18.3457 9.37453 19.3028 9.37453Z" fill="#EB5A29"/>
<path d="M6.70413 11.3321C5.6311 11.3321 4.67407 11.1146 3.83305 10.6796C3.00652 10.2301 2.354 9.59204 1.87549 8.76551C1.39697 7.93899 1.15771 6.96021 1.15771 5.82918V5.50292C1.15771 4.37188 1.39697 3.40035 1.87549 2.58833C2.354 1.7618 3.00652 1.12378 3.83305 0.67427C4.67407 0.224756 5.6311 0 6.70413 0C7.77716 0 8.73419 0.224756 9.57522 0.67427C10.4162 1.12378 11.076 1.7618 11.5545 2.58833C12.033 3.40035 12.2723 4.37188 12.2723 5.50292V5.82918C12.2723 6.96021 12.033 7.93899 11.5545 8.76551C11.076 9.59204 10.4162 10.2301 9.57522 10.6796C8.73419 11.1146 7.77716 11.3321 6.70413 11.3321ZM6.70413 9.33103C7.69016 9.33103 8.48769 9.01927 9.0967 8.39575C9.72022 7.75773 10.032 6.88046 10.032 5.76392V5.56817C10.032 4.45163 9.72747 3.58161 9.11845 2.95809C8.50944 2.32007 7.70466 2.00106 6.70413 2.00106C5.7326 2.00106 4.93508 2.32007 4.31156 2.95809C3.70254 3.58161 3.39803 4.45163 3.39803 5.56817V5.76392C3.39803 6.88046 3.70254 7.75773 4.31156 8.39575C4.93508 9.01927 5.7326 9.33103 6.70413 9.33103Z" fill="#EB5A29"/>
<rect x="99" y="6.80957" width="33.2547" height="16.7186" rx="1.5" transform="rotate(-9.26799 99 6.80957)" fill="white"/>
<path d="M128.325 14.3189C128.011 14.3702 127.746 14.3329 127.53 14.2071C127.312 14.0745 127.161 13.8609 127.078 13.5663L127.027 13.5746C126.988 13.9382 126.84 14.2321 126.582 14.4562C126.332 14.6793 126.002 14.8242 125.592 14.891C125.08 14.9745 124.645 14.9054 124.287 14.6837C123.934 14.4541 123.717 14.0902 123.636 13.5921C123.546 13.0394 123.68 12.5971 124.039 12.2653C124.399 11.9335 124.967 11.7042 125.745 11.5772L126.594 11.4386L126.551 11.1725C126.5 10.8586 126.386 10.6355 126.211 10.503C126.041 10.3626 125.782 10.3208 125.434 10.3776C125.113 10.43 124.864 10.5337 124.686 10.6888C124.508 10.8439 124.363 11.0321 124.252 11.2534L123.303 10.6517C123.432 10.3225 123.668 10.0318 124.012 9.77951C124.362 9.51927 124.834 9.34072 125.427 9.24385C126.15 9.12583 126.741 9.20114 127.198 9.46979C127.661 9.7305 127.947 10.1952 128.056 10.8639L128.433 13.177L129.017 13.0818L129.195 14.177L128.325 14.3189ZM126.003 13.8047C126.269 13.7613 126.484 13.6597 126.647 13.5C126.81 13.3403 126.872 13.1376 126.832 12.892L126.728 12.2574L125.919 12.3894C125.299 12.4907 125.022 12.7495 125.09 13.1657L125.123 13.3704C125.153 13.5546 125.248 13.6828 125.407 13.7549C125.566 13.8271 125.764 13.8437 126.003 13.8047Z" fill="#1E1E1E"/>
<path d="M120.684 15.5658C120.138 15.6549 119.708 15.5778 119.395 15.3347C119.083 15.0915 118.89 14.7482 118.818 14.3047L118.397 11.7254L116.964 11.9592L116.772 10.7822L117.703 10.6302C117.928 10.5935 118.081 10.523 118.162 10.4187C118.244 10.3144 118.265 10.1428 118.226 9.90401L118.024 8.66557L119.415 8.43842L119.719 10.3012L121.777 9.96549L121.969 11.1425L119.912 11.4782L120.389 14.4055L122.446 14.0698L122.639 15.2468L120.684 15.5658Z" fill="#1E1E1E"/>
<path d="M114.3 16.7335C113.413 16.8782 112.701 16.7422 112.164 16.3256C111.627 15.9089 111.289 15.2775 111.151 14.4314C111.081 14.0015 111.076 13.6065 111.136 13.2464C111.202 12.8784 111.325 12.5572 111.504 12.2827C111.689 12.0003 111.929 11.7721 112.223 11.5981C112.522 11.4161 112.87 11.2928 113.266 11.2282C113.661 11.1637 114.027 11.1706 114.362 11.249C114.696 11.3206 114.991 11.4546 115.247 11.651C115.503 11.8473 115.716 12.1032 115.887 12.4186C116.063 12.7261 116.185 13.0846 116.252 13.494L116.325 13.9443L112.712 14.5339L112.727 14.626C112.783 14.9672 112.934 15.2262 113.18 15.4032C113.425 15.5734 113.752 15.6251 114.161 15.5583C114.475 15.5071 114.735 15.4051 114.941 15.2524C115.147 15.0928 115.315 14.9007 115.446 14.6761L116.41 15.433C116.247 15.7188 115.996 15.9839 115.658 16.2283C115.319 16.4727 114.867 16.641 114.3 16.7335ZM113.453 12.3115C113.125 12.3649 112.879 12.5102 112.715 12.7471C112.556 12.9762 112.505 13.2613 112.56 13.6025L112.574 13.6844L114.702 13.337L114.689 13.2551C114.632 12.9071 114.492 12.6497 114.269 12.483C114.052 12.3152 113.78 12.258 113.453 12.3115Z" fill="#1E1E1E"/>
<path d="M104.298 10.4641L105.812 10.2169L106.344 13.4717L106.415 13.46C106.494 13.1249 106.639 12.835 106.851 12.5903C107.063 12.3455 107.381 12.1886 107.804 12.1195C108.097 12.0716 108.373 12.0828 108.629 12.153C108.893 12.2221 109.128 12.3553 109.335 12.5526C109.549 12.7489 109.733 13.0132 109.885 13.3456C110.044 13.6769 110.163 14.0813 110.241 14.559C110.319 15.0366 110.335 15.4578 110.289 15.8225C110.25 16.186 110.161 16.4949 110.02 16.749C109.886 17.002 109.705 17.2032 109.478 17.3524C109.257 17.5006 108.999 17.5986 108.706 17.6465C108.283 17.7155 107.932 17.6711 107.655 17.5133C107.375 17.3487 107.145 17.1166 106.963 16.8171L106.891 16.8288L107.048 17.7909L105.534 18.0381L104.298 10.4641ZM107.859 16.5763C108.2 16.5206 108.446 16.3754 108.597 16.1407C108.747 15.8991 108.791 15.594 108.731 15.2256L108.598 14.4068C108.538 14.0383 108.399 13.7668 108.181 13.5921C107.962 13.4107 107.682 13.3478 107.341 13.4034C107.075 13.4469 106.854 13.5496 106.677 13.7115C106.507 13.8723 106.445 14.0926 106.49 14.3724L106.744 15.9281C106.79 16.2078 106.919 16.397 107.131 16.4954C107.35 16.5928 107.593 16.6197 107.859 16.5763Z" fill="#1E1E1E"/>
</svg>
