<svg width="93" height="24" viewBox="0 0 93 24" fill="none" xmlns="http://www.w3.org/2000/svg">
<path fill-rule="evenodd" clip-rule="evenodd" d="M2.41087 6.37551C2.79675 6.52021 3.23085 6.59257 3.71319 6.59257C4.19551 6.59257 4.62963 6.52021 5.01548 6.37551C5.40135 6.22278 5.72693 6.00572 5.99221 5.72436C6.26554 5.443 6.47456 5.10135 6.61925 4.6994C6.76394 4.29745 6.83628 3.84326 6.83628 3.33681C6.83628 2.83035 6.76394 2.37615 6.61925 1.97421C6.47456 1.57228 6.26554 1.23063 5.99221 0.949249C5.72693 0.667892 5.40135 0.454856 5.01548 0.310164C4.62963 0.157425 4.19551 0.0810547 3.71319 0.0810547C3.23085 0.0810547 2.79675 0.157425 2.41087 0.310164C2.02502 0.454856 1.69542 0.667892 1.42209 0.949249C1.15681 1.23063 0.95182 1.57228 0.807128 1.97421C0.662415 2.37615 0.590069 2.83035 0.590069 3.33681C0.590069 3.84326 0.662415 4.29745 0.807128 4.6994C0.95182 5.10135 1.15681 5.443 1.42209 5.72436C1.69542 6.00572 2.02502 6.22278 2.41087 6.37551ZM4.65373 4.89234C4.42864 5.14155 4.11514 5.26614 3.71319 5.26614C3.31124 5.26614 2.99771 5.14155 2.77263 4.89234C2.54754 4.64313 2.435 4.28943 2.435 3.83121V2.84242C2.435 2.3842 2.54754 2.03048 2.77263 1.78129C2.99771 1.53208 3.31124 1.40747 3.71319 1.40747C4.11514 1.40747 4.42864 1.53208 4.65373 1.78129C4.87881 2.03048 4.99138 2.3842 4.99138 2.84242V3.83121C4.99138 4.28943 4.87881 4.64313 4.65373 4.89234Z" fill="#EB5A29"/>
<path fill-rule="evenodd" clip-rule="evenodd" d="M16.8956 6.59257C15.8505 6.59257 15.0587 6.30317 14.5201 5.72436C13.9815 5.14557 13.7122 4.35775 13.7122 3.36094C13.7122 2.85447 13.7805 2.40028 13.9172 1.99833C14.0619 1.58835 14.2629 1.24268 14.5201 0.961321C14.7854 0.671915 15.1029 0.454856 15.4727 0.310164C15.8505 0.157425 16.2726 0.0810547 16.7388 0.0810547C17.2051 0.0810547 17.6231 0.157425 17.9929 0.310164C18.3627 0.454856 18.6762 0.663868 18.9335 0.937198C19.1907 1.21053 19.3877 1.54413 19.5243 1.93803C19.669 2.32391 19.7414 2.758 19.7414 3.24035V3.77091H15.4848V3.87943C15.4848 4.28138 15.6094 4.60696 15.8586 4.85616C16.1078 5.09732 16.4736 5.21792 16.9559 5.21792C17.3257 5.21792 17.6432 5.14957 17.9085 5.01293C18.1738 4.86822 18.4029 4.6793 18.5958 4.44617L19.5605 5.49525C19.3193 5.7927 18.9817 6.04994 18.5476 6.267C18.1135 6.48403 17.5628 6.59257 16.8956 6.59257ZM16.7509 1.35924C16.365 1.35924 16.0555 1.47981 15.8224 1.721C15.5973 1.95411 15.4848 2.27166 15.4848 2.67361V2.77008H17.9929V2.67361C17.9929 2.26361 17.8804 1.94206 17.6553 1.70892C17.4382 1.47581 17.1368 1.35924 16.7509 1.35924Z" fill="#EB5A29"/>
<path d="M20.3999 6.44786V0.225747H22.1845V1.35924H22.2569C22.3292 1.18238 22.4176 1.01759 22.5221 0.864852C22.6266 0.712112 22.7513 0.579471 22.8959 0.466928C23.0487 0.346337 23.2215 0.253893 23.4145 0.189574C23.6154 0.117228 23.8405 0.0810547 24.0897 0.0810547C24.3872 0.0810547 24.6605 0.133302 24.9097 0.237818C25.1589 0.334287 25.3719 0.483003 25.5488 0.683966C25.7256 0.884951 25.8623 1.13013 25.9588 1.41954C26.0633 1.70892 26.1155 2.04255 26.1155 2.42038V6.44786H24.3309V2.66154C24.3309 1.85766 23.9812 1.45571 23.2818 1.45571C23.1452 1.45571 23.0085 1.47581 22.8718 1.51601C22.7432 1.54816 22.6266 1.60443 22.5221 1.68482C22.4176 1.75717 22.3332 1.84961 22.2689 1.96216C22.2126 2.0747 22.1845 2.20734 22.1845 2.36008V6.44786H20.3999Z" fill="#EB5A29"/>
<path fill-rule="evenodd" clip-rule="evenodd" d="M9.09855 0.225747H7.31392V7.43286C7.84656 7.41638 8.44468 7.42391 9.09855 7.63979V5.31438H9.18297C9.33571 5.69221 9.55677 6.00171 9.84618 6.24287C10.1356 6.47601 10.5295 6.59257 11.0279 6.59257C11.3736 6.59257 11.6871 6.52825 11.9684 6.39964C12.2578 6.271 12.503 6.07406 12.704 5.80878C12.913 5.54349 13.0738 5.20584 13.1863 4.79587C13.3069 4.38589 13.3672 3.89953 13.3672 3.33681C13.3672 2.77408 13.3069 2.28773 13.1863 1.87776C13.0738 1.46776 12.913 1.13013 12.704 0.864852C12.503 0.59957 12.2578 0.402609 11.9684 0.273991C11.6871 0.145374 11.3736 0.0810547 11.0279 0.0810547C10.5295 0.0810547 10.1356 0.201646 9.84618 0.442806C9.55677 0.683966 9.33571 0.989446 9.18297 1.35924H9.09855V0.225747ZM11.1846 4.84411C10.9676 5.08527 10.6581 5.20584 10.2562 5.20584C9.94264 5.20584 9.66931 5.12947 9.43618 4.97676C9.21109 4.82402 9.09855 4.58283 9.09855 4.25325V2.42038C9.09855 2.09077 9.21109 1.84961 9.43618 1.69687C9.66931 1.54413 9.94264 1.46776 10.2562 1.46776C10.6581 1.46776 10.9676 1.59238 11.1846 1.84157C11.4017 2.08275 11.5102 2.42038 11.5102 2.85447V3.81913C11.5102 4.25325 11.4017 4.59491 11.1846 4.84411Z" fill="#EB5A29"/>
<path d="M84.4263 19.2955C85.3643 19.6766 86.4634 19.8671 87.7239 19.8671C89.4093 19.8671 90.7063 19.5227 91.615 18.8339C92.5383 18.145 93 17.207 93 16.0199C93 15.4776 92.9047 15.016 92.7142 14.6349C92.5237 14.2539 92.2599 13.9314 91.9228 13.6676C91.6004 13.4038 91.2193 13.1987 90.7796 13.0521C90.34 12.8909 89.8636 12.7736 89.3507 12.7003L87.548 12.4146C87.1083 12.3413 86.7639 12.246 86.5147 12.1288C86.2656 11.9969 86.141 11.7624 86.141 11.4253C86.141 10.6632 86.7712 10.2821 88.0316 10.2821C88.7791 10.2821 89.4166 10.4067 89.9442 10.6558C90.4719 10.905 90.9042 11.2128 91.2413 11.5792L92.8681 9.73252C92.3991 9.17558 91.7689 8.75056 90.9775 8.45745C90.2007 8.14968 89.2554 7.99579 88.1415 7.99579C86.5001 7.99579 85.225 8.33288 84.3163 9.00704C83.4077 9.68121 82.9533 10.6119 82.9533 11.799C82.9533 12.3413 83.0486 12.8029 83.2391 13.184C83.4297 13.5651 83.6861 13.8875 84.0086 14.1513C84.331 14.4151 84.7121 14.6276 85.1518 14.7888C85.5914 14.9354 86.0677 15.0453 86.5807 15.1186L88.4054 15.4044C88.845 15.4776 89.1895 15.5803 89.4386 15.7121C89.6878 15.8294 89.8123 16.0492 89.8123 16.3717C89.8123 16.782 89.6291 17.0898 89.2627 17.295C88.8963 17.4855 88.3907 17.5808 87.7458 17.5808C86.9837 17.5808 86.3022 17.4489 85.7013 17.1851C85.1151 16.9066 84.6021 16.5255 84.1625 16.0419L82.3378 17.7347C82.8068 18.3942 83.5029 18.9145 84.4263 19.2955Z" fill="#EB5A29"/>
<path d="M76.8724 19.6033C75.6999 19.6033 74.8279 19.2955 74.2563 18.68C73.6847 18.0644 73.3989 17.2803 73.3989 16.3277V10.7877H70.3212V8.25959H72.3217C72.8053 8.25959 73.1498 8.16432 73.3549 7.9738C73.5601 7.78326 73.6627 7.43153 73.6627 6.91858V4.25852H76.6525V8.25959H81.0713V10.7877H76.6525V17.0752H81.0713V19.6033H76.8724Z" fill="#EB5A29"/>
<path fill-rule="evenodd" clip-rule="evenodd" d="M60.1072 18.2843C61.0891 19.3395 62.5328 19.8671 64.438 19.8671C65.6545 19.8671 66.6584 19.6693 67.4499 19.2735C68.2413 18.8778 68.8568 18.4088 69.2965 17.8666L67.5378 15.954C67.186 16.379 66.7683 16.7234 66.2847 16.9872C65.8011 17.2364 65.2221 17.3609 64.548 17.3609C63.6686 17.3609 63.0018 17.1411 62.5474 16.7014C62.0931 16.2471 61.8659 15.6535 61.8659 14.9207V14.7229H69.6262V13.7556C69.6262 12.8762 69.4944 12.0848 69.2305 11.3813C68.9814 10.6632 68.6223 10.0549 68.1533 9.55664C67.6843 9.05835 67.1128 8.67729 66.4386 8.41349C65.7644 8.13502 65.0023 7.99579 64.1522 7.99579C63.3022 7.99579 62.5328 8.13502 61.8439 8.41349C61.1698 8.67729 60.5909 9.07299 60.1072 9.6006C59.6382 10.1136 59.2718 10.7438 59.008 11.4912C58.7589 12.224 58.6343 13.0521 58.6343 13.9754C58.6343 15.7928 59.1253 17.229 60.1072 18.2843ZM62.4815 10.9856C62.9065 10.5459 63.4707 10.3261 64.1742 10.3261C64.8777 10.3261 65.4273 10.5386 65.823 10.9636C66.2334 11.3886 66.4386 11.9749 66.4386 12.7223V12.8982H61.8659V12.7223C61.8659 11.9895 62.0711 11.4106 62.4815 10.9856Z" fill="#EB5A29"/>
<path fill-rule="evenodd" clip-rule="evenodd" d="M46.9694 8.25959H50.223V10.3261H50.3769C50.6554 9.65191 51.0584 9.09497 51.586 8.65531C52.1136 8.21563 52.8318 7.99579 53.7404 7.99579C54.3707 7.99579 54.9422 8.11304 55.4552 8.34752C55.9828 8.58202 56.4298 8.9411 56.7962 9.42475C57.1773 9.90839 57.4704 10.5239 57.6756 11.2714C57.8954 12.0188 58.0053 12.9055 58.0053 13.9314C58.0053 14.9574 57.8954 15.8441 57.6756 16.5915C57.4704 17.339 57.1773 17.9545 56.7962 18.4382C56.4298 18.9218 55.9828 19.2809 55.4552 19.5154C54.9422 19.7499 54.3707 19.8671 53.7404 19.8671C52.8318 19.8671 52.1136 19.6546 51.586 19.2296C51.0584 18.7899 50.6554 18.2257 50.3769 17.5368H50.223V24.0001H46.9694V8.25959ZM52.3335 17.339C53.0663 17.339 53.6305 17.1191 54.0263 16.6794C54.422 16.2251 54.6198 15.6022 54.6198 14.8108V13.0521C54.6198 12.2607 54.422 11.6451 54.0263 11.2054C53.6305 10.7511 53.0663 10.5239 52.3335 10.5239C51.7619 10.5239 51.2636 10.6632 50.8386 10.9416C50.4282 11.2201 50.223 11.6598 50.223 12.2607V15.6022C50.223 16.2031 50.4282 16.6428 50.8386 16.9213C51.2636 17.1997 51.7619 17.339 52.3335 17.339Z" fill="#EB5A29"/>
<path fill-rule="evenodd" clip-rule="evenodd" d="M38.3603 8.25959H35.1067V24.0001H38.3603V17.5368H38.5142C38.7927 18.2257 39.1957 18.7899 39.7233 19.2296C40.2509 19.6546 40.9691 19.8671 41.8777 19.8671C42.5079 19.8671 43.0795 19.7499 43.5925 19.5154C44.1201 19.2809 44.5671 18.9218 44.9335 18.4382C45.3145 17.9545 45.6077 17.339 45.8129 16.5915C46.0327 15.8441 46.1426 14.9574 46.1426 13.9314C46.1426 12.9055 46.0327 12.0188 45.8129 11.2714C45.6077 10.5239 45.3145 9.90839 44.9335 9.42475C44.5671 8.9411 44.1201 8.58202 43.5925 8.34752C43.0795 8.11304 42.5079 7.99579 41.8777 7.99579C40.9691 7.99579 40.2509 8.21563 39.7233 8.65531C39.1957 9.09497 38.7927 9.65191 38.5142 10.3261H38.3603V8.25959ZM42.1635 16.6794C41.7678 17.1191 41.2036 17.339 40.4708 17.339C39.8992 17.339 39.4009 17.1997 38.9759 16.9213C38.5655 16.6428 38.3603 16.2031 38.3603 15.6022V12.2607C38.3603 11.6598 38.5655 11.2201 38.9759 10.9416C39.4009 10.6632 39.8992 10.5239 40.4708 10.5239C41.2036 10.5239 41.7678 10.7511 42.1635 11.2054C42.5592 11.6451 42.7571 12.2607 42.7571 13.0521V14.8108C42.7571 15.6022 42.5592 16.2251 42.1635 16.6794Z" fill="#EB5A29"/>
<path d="M24.0134 17.0751H27.6187V10.7877H24.0134V8.25959H30.8724V17.0751H34.2139V19.6033H24.0134V17.0751Z" fill="#EB5A29"/>
<path d="M12.0391 8.25959V19.6033H15.2928V12.1508C15.2928 11.8723 15.3441 11.6305 15.4467 11.4253C15.5639 11.2201 15.7178 11.0515 15.9083 10.9197C16.0988 10.7731 16.3114 10.6705 16.5458 10.6119C16.795 10.5386 17.0441 10.502 17.2933 10.502C18.5684 10.502 19.2059 11.2347 19.2059 12.7003V19.6033H22.4595V12.2607C22.4595 11.5718 22.3642 10.9636 22.1737 10.436C21.9979 9.90839 21.7487 9.46139 21.4263 9.09497C21.1038 8.72858 20.7155 8.45745 20.2611 8.28157C19.8068 8.09106 19.3085 7.99579 18.7662 7.99579C18.3119 7.99579 17.9015 8.06173 17.5351 8.19365C17.1834 8.3109 16.8683 8.47943 16.5898 8.69927C16.326 8.90445 16.0988 9.14628 15.9083 9.42475C15.7178 9.70319 15.5566 10.0036 15.4247 10.3261H15.2928V8.25959H12.0391Z" fill="#EB5A29"/>
<path d="M5.38607 19.8671C4.12565 19.8671 3.02646 19.6766 2.08846 19.2955C1.16515 18.9145 0.468986 18.3942 0 17.7347L1.82466 16.0419C2.26434 16.5255 2.77731 16.9066 3.36355 17.1851C3.96443 17.4489 4.64594 17.5808 5.40805 17.5808C6.05292 17.5808 6.55854 17.4855 6.92494 17.295C7.29134 17.0898 7.47453 16.782 7.47453 16.3717C7.47453 16.0492 7.34996 15.8294 7.10082 15.7121C6.85165 15.5802 6.50724 15.4776 6.06756 15.4044L4.2429 15.1186C3.72995 15.0453 3.25362 14.9354 2.81394 14.7888C2.37427 14.6276 1.99322 14.4151 1.67078 14.1513C1.34835 13.8875 1.09187 13.5651 0.901349 13.184C0.71081 12.8029 0.61554 12.3413 0.61554 11.799C0.61554 10.6119 1.06989 9.68121 1.97855 9.00704C2.88722 8.33286 4.16229 7.99579 5.80375 7.99579C6.91762 7.99579 7.86291 8.14966 8.63969 8.45745C9.43111 8.75056 10.0613 9.17558 10.5303 9.73252L8.9035 11.5792C8.5664 11.2128 8.13406 10.905 7.60645 10.6558C7.07884 10.4067 6.44129 10.2821 5.69384 10.2821C4.43344 10.2821 3.80321 10.6632 3.80321 11.4253C3.80321 11.7624 3.92779 11.9969 4.17695 12.1288C4.42609 12.246 4.77051 12.3413 5.21019 12.4146L7.01287 12.7003C7.52584 12.7736 8.00215 12.8909 8.44183 13.0521C8.88151 13.1986 9.26257 13.4038 9.585 13.6676C9.92207 13.9314 10.1859 14.2539 10.3764 14.6349C10.5669 15.016 10.6622 15.4776 10.6622 16.0199C10.6622 17.207 10.2005 18.145 9.27721 18.8338C8.36854 19.5227 7.07149 19.8671 5.38607 19.8671Z" fill="#EB5A29"/>
<path d="M29.2132 6.74407C30.3511 6.74407 31.2735 5.82166 31.2735 4.6838C31.2735 3.54593 30.3511 2.62352 29.2132 2.62352C28.0754 2.62352 27.153 3.54593 27.153 4.6838C27.153 5.82166 28.0754 6.74407 29.2132 6.74407Z" fill="#EB5A29"/>
</svg>
